<svg width="25" height="26" viewBox="0 0 25 26" fill="none" xmlns="http://www.w3.org/2000/svg">
<path d="M7.09771 10.0237C7.09771 9.60944 6.76192 9.27366 6.34771 9.27366C5.9335 9.27366 5.59771 9.60944 5.59771 10.0237H7.09771ZM19.4028 10.0237C19.4028 9.60944 19.067 9.27366 18.6528 9.27366C18.2386 9.27366 17.9028 9.60944 17.9028 10.0237H19.4028ZM15.3011 11.0491C15.3011 10.6349 14.9653 10.2991 14.5511 10.2991C14.1369 10.2991 13.8011 10.6349 13.8011 11.0491H15.3011ZM13.8011 18.2271C13.8011 18.6413 14.1369 18.9771 14.5511 18.9771C14.9653 18.9771 15.3011 18.6413 15.3011 18.2271H13.8011ZM11.1994 11.0491C11.1994 10.6349 10.8636 10.2991 10.4494 10.2991C10.0352 10.2991 9.69942 10.6349 9.69942 11.0491H11.1994ZM9.69942 18.2271C9.69942 18.6413 10.0352 18.9771 10.4494 18.9771C10.8636 18.9771 11.1994 18.6413 11.1994 18.2271H9.69942ZM4.80957 6.19738C4.39536 6.19738 4.05957 6.53316 4.05957 6.94738C4.05957 7.36159 4.39536 7.69738 4.80957 7.69738V6.19738ZM20.191 7.69738C20.6052 7.69738 20.941 7.36159 20.941 6.94738C20.941 6.53316 20.6052 6.19738 20.191 6.19738V7.69738ZM7.68705 6.71021C7.55607 7.10316 7.76844 7.5279 8.16139 7.65889C8.55435 7.78987 8.97909 7.5775 9.11008 7.18455L7.68705 6.71021ZM8.9564 5.27388L9.66791 5.51105L9.66797 5.51088L8.9564 5.27388ZM10.9027 3.8711L10.9025 4.6211H10.9027V3.8711ZM14.0979 3.8711V4.6211L14.0988 4.62109L14.0979 3.8711ZM16.0462 5.27388L16.758 5.0375L16.7578 5.03688L16.0462 5.27388ZM15.8902 7.18376C16.0208 7.57686 16.4453 7.7897 16.8384 7.65915C17.2315 7.5286 17.4443 7.10409 17.3138 6.71099L15.8902 7.18376ZM5.59771 10.0237V20.2779H7.09771V10.0237H5.59771ZM5.59771 20.2779C5.59771 21.8248 6.8517 23.0788 8.39857 23.0788V21.5788C7.68012 21.5788 7.09771 20.9964 7.09771 20.2779H5.59771ZM8.39857 23.0788H16.602V21.5788H8.39857V23.0788ZM16.602 23.0788C18.1489 23.0788 19.4028 21.8248 19.4028 20.2779H17.9028C17.9028 20.9964 17.3204 21.5788 16.602 21.5788V23.0788ZM19.4028 20.2779V10.0237H17.9028V20.2779H19.4028ZM13.8011 11.0491V18.2271H15.3011V11.0491H13.8011ZM9.69942 11.0491V18.2271H11.1994V11.0491H9.69942ZM4.80957 7.69738H20.191V6.19738H4.80957V7.69738ZM9.11008 7.18455L9.66791 5.51105L8.24488 5.03671L7.68705 6.71021L9.11008 7.18455ZM9.66797 5.51088C9.84498 4.97943 10.3423 4.62096 10.9025 4.6211L10.9028 3.1211C9.69677 3.12081 8.62595 3.89261 8.24483 5.03688L9.66797 5.51088ZM10.9027 4.6211H14.0979V3.1211H10.9027V4.6211ZM14.0988 4.62109C14.6595 4.6204 15.1575 4.97897 15.3346 5.51088L16.7578 5.03688C16.3763 3.89163 15.3041 3.1196 14.097 3.1211L14.0988 4.62109ZM15.3344 5.51027L15.8902 7.18376L17.3138 6.71099L16.758 5.0375L15.3344 5.51027Z" fill="#D32F2F"/>
</svg>
