<svg width="25" height="25" viewBox="0 0 25 25" fill="none" xmlns="http://www.w3.org/2000/svg">
<path d="M7.59803 20.6033C6.21674 20.6033 5.09699 19.4836 5.09699 18.1023V15.1011C5.09699 14.4377 4.83349 13.8016 4.36445 13.3326C3.89541 12.8635 3.25926 12.6 2.59595 12.6C3.25926 12.6 3.89541 12.3365 4.36445 11.8675C4.83349 11.3984 5.09699 10.7623 5.09699 10.099V7.09772C5.09699 5.71643 6.21674 4.59668 7.59803 4.59668" stroke="#F4904D" stroke-width="1.5" stroke-linecap="round" stroke-linejoin="round"/>
<path d="M17.6023 4.59668C18.9836 4.59668 20.1033 5.71643 20.1033 7.09772V10.099C20.1033 11.4803 21.2231 12.6 22.6044 12.6C21.2231 12.6 20.1033 13.7198 20.1033 15.1011V18.1023C20.1033 19.4836 18.9836 20.6033 17.6023 20.6033" stroke="#F4904D" stroke-width="1.5" stroke-linecap="round" stroke-linejoin="round"/>
<path d="M9.27386 12.682C9.27386 12.6544 9.25147 12.632 9.22384 12.632C9.19622 12.632 9.17382 12.6544 9.17382 12.682C9.17382 12.7097 9.19622 12.7321 9.22384 12.7321C9.25147 12.7321 9.27386 12.7097 9.27386 12.682" stroke="#F4904D" stroke-width="1.5" stroke-linecap="round" stroke-linejoin="round"/>
<path d="M12.6503 12.673C12.6503 12.6454 12.6279 12.623 12.6003 12.623C12.5727 12.623 12.5503 12.6454 12.5503 12.673C12.5503 12.7007 12.5727 12.7231 12.6003 12.7231C12.6279 12.7231 12.6503 12.7007 12.6503 12.673" stroke="#F4904D" stroke-width="1.5" stroke-linecap="round" stroke-linejoin="round"/>
<path d="M15.6515 12.673C15.6515 12.6454 15.6292 12.623 15.6015 12.623C15.5739 12.623 15.5515 12.6454 15.5515 12.673C15.5515 12.7007 15.5739 12.7231 15.6015 12.7231C15.6292 12.7231 15.6515 12.7007 15.6515 12.673" stroke="#F4904D" stroke-width="1.5" stroke-linecap="round" stroke-linejoin="round"/>
</svg>
