<svg width="25" height="26" viewBox="0 0 25 26" fill="none" xmlns="http://www.w3.org/2000/svg">
<path fill-rule="evenodd" clip-rule="evenodd" d="M19.478 7.88756H12.8425C12.5017 7.88774 12.1832 7.71866 11.9924 7.43637L10.5568 5.32092C10.3653 5.03981 10.0468 4.87195 9.70671 4.87281H5.12202C3.98937 4.87281 3.07117 5.79101 3.07117 6.92366V19.2288C3.07117 20.3614 3.98937 21.2796 5.12202 21.2796H19.478C20.6107 21.2796 21.5289 20.3614 21.5289 19.2288V9.93842C21.5289 8.80576 20.6107 7.88756 19.478 7.88756Z" stroke="#F4904D" stroke-width="1.5" stroke-linecap="round" stroke-linejoin="round"/>
<path d="M3.07117 10.9023H9.7067C10.0458 10.9022 10.3628 10.7344 10.5537 10.4542L11.9893 8.33671C12.1802 8.05581 12.4977 7.88762 12.8373 7.88757" stroke="#F4904D" stroke-width="1.5" stroke-linecap="round" stroke-linejoin="round"/>
</svg>
