<svg width="107" height="94" viewBox="0 0 107 94" fill="none" xmlns="http://www.w3.org/2000/svg">
<path d="M12.1705 77.9058C13.5977 79.4877 15.8265 80.6399 18.3388 80.6399C20.6556 80.6399 21.8873 79.3705 21.8873 77.7886C21.8873 75.8259 20.0398 74.9764 17.6839 73.9804C14.4482 72.711 10.4012 71.1682 10.4012 66.0906C10.4012 62.048 13.5586 58.6206 18.8765 58.6206C21.9948 58.6206 24.6929 59.6166 26.6577 61.4719L24.1943 65.3192C22.6498 63.8545 20.6849 63.1612 18.7592 63.1612C16.8334 63.1612 15.6799 64.2353 15.6799 65.7781C15.6799 67.5064 17.4493 68.3169 19.766 69.2836C23.0799 70.5921 27.127 72.2814 27.127 77.3688C27.127 81.8703 24.0477 85.1805 18.417 85.1805C14.5264 85.1805 11.672 83.9111 9.62891 81.8703L12.1705 77.9058Z" fill="#005163"/>
<path d="M28.8203 59.1858H33.9708V75.946C33.9708 78.9659 35.423 80.6555 38.1338 80.6555C40.8446 80.6555 42.2968 78.9756 42.2968 75.946V59.1858H47.4473V75.9168C47.4473 81.8111 43.8942 85.1806 38.1338 85.1806C32.3734 85.1806 28.8203 81.8111 28.8203 75.9168V59.1858Z" fill="#005163"/>
<path d="M49.7051 71.9005C49.7051 64.1279 53.8416 58.6206 60.3253 58.6206C65.2506 58.6206 67.569 61.8136 68.858 64.7821L64.6446 66.6667C63.8846 64.6259 62.4031 63.2002 60.3253 63.2002C56.9872 63.2002 54.9382 66.8522 54.9382 71.9005C54.9382 76.9489 56.9872 80.6009 60.3253 80.6009C62.4897 80.6009 63.9615 78.9799 64.683 76.8708L68.8965 78.7163C67.6459 81.7921 65.3276 85.1805 60.3253 85.1805C53.8416 85.1805 49.7051 79.683 49.7051 71.9005Z" fill="#005163"/>
<path d="M77.6323 74.6622L75.805 77.4867V84.6155H70.5898V59.1858H75.805V70.7351L83.124 59.1858H89.1985L80.9016 71.1607L89.7812 84.6155H83.6278L77.6323 74.6622Z" fill="#005163"/>
<g opacity="0.75">
<path opacity="0.75" d="M16.6077 25.1314H9.62891V23.0193H25.998V25.1411H19.0193V51.2745H16.6175V25.1314H16.6077Z" fill="#005163"/>
<path opacity="0.75" d="M28.2559 23.0193H31.0781V51.2745H28.2559V23.0193Z" fill="#005163"/>
<path opacity="0.75" d="M34.4648 37.1517C34.4648 28.6776 38.5801 22.4541 45.0877 22.4541C48.9864 22.4541 51.3886 24.6656 53.013 27.4348L50.9948 28.4525C49.7051 26.1138 47.7361 24.6167 45.0779 24.6167C40.1455 24.6167 36.936 29.9008 36.936 37.1419C36.936 44.3439 40.1455 49.6672 45.0779 49.6672C47.864 49.6672 49.8331 47.8764 51.0342 45.4105L53.0918 46.4282C51.4674 49.491 49.0258 51.8395 45.0779 51.8395C38.5801 51.8493 34.4648 45.5867 34.4648 37.1517Z" fill="#005163"/>
<path opacity="0.75" d="M60.8322 38.1835L58.3093 41.7458V51.2745H55.9141V23.0193H58.3093V38.4365L69.1272 23.0193H71.9936L62.2556 36.4899L72.8477 51.2745H69.942L60.8322 38.1835Z" fill="#005163"/>
<path opacity="0.75" d="M74.8705 46.5261C76.2494 48.2679 78.6304 49.6769 81.4776 49.6769C85.5352 49.6769 87.311 47.123 87.311 44.3929C87.311 40.6842 84.3348 39.1577 81.2693 37.6214C77.8566 35.9579 74.2355 34.2552 74.2355 29.5681C74.2355 25.2625 77.6879 22.4541 81.9637 22.4541C85.0292 22.4541 87.4499 23.5207 89.1761 25.3897L87.8368 27.1804C86.2792 25.3897 84.2554 24.6264 81.9241 24.6264C79.0272 24.6264 76.6959 26.5444 76.6959 29.48C76.6959 32.5428 79.4637 33.9127 82.4003 35.4001C85.9419 37.1908 89.7812 39.1088 89.7812 44.2559C89.7812 48.1309 87.2812 51.8395 81.4876 51.8395C77.9856 51.8395 75.2276 50.4304 73.4121 48.307L74.8705 46.5261Z" fill="#005163"/>
</g>
<path d="M91.8403 60.3163H92.2395V57.8009H93.1742V57.4907H90.9102V57.8009H91.8403V60.3163Z" fill="#005163"/>
<path d="M96.169 60.3163H96.5547L96.3641 57.4907H95.8605L95.316 58.8574C95.1799 59.2137 95.071 59.5239 94.9939 59.809H94.9803C94.9032 59.5155 94.7988 59.2053 94.6718 58.8574L94.15 57.4907H93.6464L93.4331 60.3163H93.8097L93.8914 59.1047C93.9186 58.6813 93.9413 58.2076 93.9504 57.8554H93.9594C94.0456 58.1908 94.1681 58.5555 94.3133 58.9538L94.8079 60.2995H95.1073L95.6473 58.9286C95.8015 58.5388 95.9286 58.1866 96.0329 57.8554H96.0465C96.042 58.2076 96.0692 58.6813 96.0919 59.0754L96.169 60.3163Z" fill="#005163"/>
</svg>
