<svg width="216" height="19" viewBox="0 0 216 19" fill="none" xmlns="http://www.w3.org/2000/svg">
<g clip-path="url(#clip0_353_2320)">
<path d="M167.998 0.0301514L173.584 8.62779L179.172 0.0301514H181.049V9.52933H179.81V1.39346L174.522 9.52933H172.645L167.361 1.39346V9.52933H166.122V0.0301514H167.998Z" fill="#005163"/>
<path d="M185.795 0.0301514V9.52933H184.556V0.0301514H185.795Z" fill="#005163"/>
<path d="M191.204 0.0301514L199.479 8.35293V0.0301514H200.718V9.52933H198.841L190.566 1.20289V9.52566H189.328V0.0301514H191.204Z" fill="#005163"/>
<path d="M208.615 0.0301514C213.438 0.0301514 216 1.67931 216 4.77974C216 7.88017 213.424 9.52933 208.575 9.52933H204.012V0.0301514H208.615ZM214.765 4.77974C214.765 2.41228 212.617 1.15525 208.579 1.15525H205.255V8.40423H208.579C212.617 8.40423 214.765 7.14354 214.765 4.77974Z" fill="#005163"/>
<path d="M74.1537 16.0417H74.1501V0.0118408H71.7826V18.1966H74.1537H88.003V16.0417H74.1537Z" fill="#005163"/>
<path d="M159.119 2.16675V0.0118408H142.946V18.1966H159.119V16.0417H145.313V10.0021H157.924V7.85086H145.313V2.16675H159.119Z" fill="#005163"/>
<path d="M103.12 0.0118408L94.7353 10.0094L86.2769 0.0118408H83.1912L93.295 11.7282V18.1966H95.8457V12.2743L105.957 0.0118408H103.12Z" fill="#005163"/>
<path d="M112.396 0.0484619L123.09 16.5071L133.787 0.0484619H137.375V18.2296H135.008V2.6578L124.886 18.2332H121.298L111.179 2.6578V18.2332H108.812V0.0484619H112.396Z" fill="#005163"/>
<path d="M22.6375 17.9767L17.4775 4.39131C16.543 1.93223 14.1865 0.305054 11.5552 0.305054L16.7152 13.8905C17.6497 16.3532 20.0099 17.9767 22.6375 17.9767Z" fill="#00B08A"/>
<path d="M24.0411 17.9767L29.2012 4.39131C30.1357 1.93223 32.4922 0.305054 35.1235 0.305054L29.9598 13.8942C29.0289 16.3532 26.6688 17.9767 24.0411 17.9767Z" fill="#F4904D"/>
<path d="M6.18982 18.9882C8.37771 18.9882 10.1515 17.2145 10.1515 15.0266V0.305054C7.96359 0.305054 6.18982 2.07882 6.18982 4.26671V18.9882Z" fill="#0F7F90"/>
<path d="M0 0.305054V15.0266C0 17.2145 1.77377 18.9882 3.96166 18.9882V4.27037C3.96166 2.07882 2.18789 0.305054 0 0.305054Z" fill="#B0C9CB"/>
<path d="M46.7446 0.305054C44.5567 0.305054 42.783 2.07882 42.783 4.26671V18.9882C44.9709 18.9882 46.7446 17.2145 46.7446 15.0266V0.305054Z" fill="#FACCCD"/>
<path d="M36.5895 0.305054C38.7774 0.305054 40.5511 2.07882 40.5511 4.26671V18.9882C38.3632 18.9882 36.5895 17.2145 36.5895 15.0266V0.305054Z" fill="#F38B97"/>
</g>
<defs>
<clipPath id="clip0_353_2320">
<rect width="216" height="18.9764" fill="white" transform="translate(0 0.0118408)"/>
</clipPath>
</defs>
</svg>
