<svg width="25" height="25" viewBox="0 0 25 25" fill="none" xmlns="http://www.w3.org/2000/svg">
<path d="M3.49658 13.5003V6.49734C3.49658 4.83965 4.84014 3.49609 6.49783 3.49609H18.5028C20.1605 3.49609 21.5041 4.83965 21.5041 6.49734V18.5023C21.5041 20.16 20.1605 21.5036 18.5028 21.5036H12.5003" stroke="#F4904D" stroke-width="1.5" stroke-linecap="round" stroke-linejoin="round"/>
<path fill-rule="evenodd" clip-rule="evenodd" d="M11.187 11.7812L13.1688 13.763L16.002 10.9959C16.039 10.9598 16.1011 10.9719 16.1231 11.0179C16.8564 12.5855 16.5132 14.5163 15.2177 15.8109C13.9632 17.0654 12.1794 17.3955 10.6598 16.8013L6.48705 20.974C5.80277 21.6573 4.69331 21.6573 4.01002 20.974C3.32674 20.2897 3.32674 19.1803 4.01002 18.497L8.14975 14.3573C7.5545 12.8386 7.88564 11.0549 9.14016 9.79937C10.4327 8.50683 12.3595 8.22571 13.9282 8.89699C13.9752 8.918 13.9872 8.98203 13.9512 9.01904L11.187 11.7812Z" stroke="#F4904D" stroke-width="1.5" stroke-linecap="round" stroke-linejoin="round"/>
</svg>
