<svg width="20" height="21" viewBox="0 0 20 21" fill="none" xmlns="http://www.w3.org/2000/svg">
<path fill-rule="evenodd" clip-rule="evenodd" d="M9.04671 11.5534C8.07171 10.5784 7.33671 9.48674 6.84837 8.37924C6.74504 8.14507 6.80587 7.8709 6.98671 7.69007L7.66921 7.0084C8.22837 6.44924 8.22837 5.6584 7.74004 5.17007L6.76171 4.19174C6.11087 3.5409 5.05587 3.5409 4.40504 4.19174L3.86171 4.73507C3.24421 5.35257 2.98671 6.2434 3.15337 7.12674C3.56504 9.30424 4.83004 11.6884 6.87087 13.7292C8.91171 15.7701 11.2959 17.0351 13.4734 17.4467C14.3567 17.6134 15.2475 17.3559 15.865 16.7384L16.4075 16.1959C17.0584 15.5451 17.0584 14.4901 16.4075 13.8392L15.43 12.8617C14.9417 12.3734 14.15 12.3734 13.6625 12.8617L12.91 13.6151C12.7292 13.7959 12.455 13.8567 12.2209 13.7534C11.1134 13.2642 10.0217 12.5284 9.04671 11.5534Z" stroke="url(#paint0_linear_549_40400)" stroke-width="1.5" stroke-linecap="round" stroke-linejoin="round"/>
<defs>
<linearGradient id="paint0_linear_549_40400" x1="6.20694" y1="3.70361" x2="14.7278" y2="4.76204" gradientUnits="userSpaceOnUse">
<stop stop-color="#F38B97"/>
<stop offset="1" stop-color="#F4904D"/>
</linearGradient>
</defs>
</svg>
