<svg width="35" height="36" viewBox="0 0 35 36" fill="none" xmlns="http://www.w3.org/2000/svg">
<path d="M8.01856 23.1162L8.32316 23.8015C8.54441 23.7032 8.70458 23.5041 8.75325 23.2669C8.80192 23.0298 8.73309 22.7837 8.56845 22.6062L8.01856 23.1162ZM4.375 24.7355L4.0704 24.0502C3.86324 24.1422 3.70884 24.3231 3.65038 24.5421C3.59191 24.7611 3.63564 24.9948 3.76935 25.1779L4.375 24.7355ZM7 7.67303L7.66058 7.31788C7.53797 7.08982 7.30639 6.94114 7.04798 6.92457C6.78958 6.908 6.54091 7.0259 6.39018 7.23643L7 7.67303ZM14.875 14.2355L14.6979 14.9643C14.9172 15.0176 15.1489 14.9693 15.3287 14.8328C15.5084 14.6962 15.6171 14.4859 15.6246 14.2603L14.875 14.2355ZM26.6875 10.298L26.0613 10.7108C26.2001 10.9213 26.4354 11.048 26.6875 11.048V10.298ZM30.625 10.298L31.249 10.7141C31.4025 10.4839 31.4168 10.188 31.2863 9.94414C31.1557 9.70027 30.9016 9.54803 30.625 9.54803V10.298ZM28 14.2355L27.376 13.8195C27.2938 13.9427 27.25 14.0875 27.25 14.2355H28ZM7.71395 22.4308L4.0704 24.0502L4.6796 25.4209L8.32316 23.8015L7.71395 22.4308ZM8.56845 22.6062C4.71254 18.4488 4.48704 12.4714 7.60982 8.10964L6.39018 7.23643C2.86089 12.1659 3.11849 18.9359 7.46866 23.6262L8.56845 22.6062ZM6.33942 8.02819C8.02687 11.1668 11.1939 14.1127 14.6979 14.9643L15.0521 13.5068C12.0636 12.7804 9.20188 10.1847 7.66058 7.31788L6.33942 8.02819ZM15.6246 14.2603C15.6819 12.5285 16.2945 11.0737 17.2896 10.057C18.2806 9.04429 19.6921 8.42303 21.4375 8.42303V6.92303C19.3169 6.92303 17.5099 7.6872 16.2175 9.00785C14.9291 10.3244 14.1935 12.1509 14.1254 14.2107L15.6246 14.2603ZM21.4375 8.42303C22.6568 8.42303 23.5755 8.65478 24.2956 9.03908C25.0141 9.42252 25.5813 9.98256 26.0613 10.7108L27.3137 9.88526C26.7248 8.99185 25.9831 8.23938 25.0019 7.71574C24.0223 7.19296 22.8505 6.92303 21.4375 6.92303V8.42303ZM26.6875 11.048H30.625V9.54803H26.6875V11.048ZM30.001 9.88201L27.376 13.8195L28.624 14.6516L31.249 10.7141L30.001 9.88201ZM27.25 14.2355C27.25 18.6913 25.9776 22.4378 23.6642 25.0596C21.3611 27.6698 17.9656 29.2355 13.5625 29.2355V30.7355C18.347 30.7355 22.1702 29.02 24.7889 26.0521C27.3974 23.0958 28.75 18.9673 28.75 14.2355H27.25ZM13.5625 29.2355C11.0821 29.2355 9.39706 28.5927 8.12064 27.6895C6.82131 26.7701 5.90078 25.553 4.98065 24.2932L3.76935 25.1779C4.68234 26.4279 5.73057 27.8358 7.25421 28.9139C8.80075 30.0083 10.7929 30.7355 13.5625 30.7355V29.2355Z" fill="url(#paint0_linear_675_32456)"/>
<defs>
<linearGradient id="paint0_linear_675_32456" x1="10.2813" y1="7.67303" x2="26.4048" y2="10.0294" gradientUnits="userSpaceOnUse">
<stop stop-color="#F38B97"/>
<stop offset="1" stop-color="#F4904D"/>
</linearGradient>
</defs>
</svg>
