<svg width="25" height="24" viewBox="0 0 25 24" fill="none" xmlns="http://www.w3.org/2000/svg">
<path fill-rule="evenodd" clip-rule="evenodd" d="M17.6015 21.0039H7.59737C5.38731 21.0039 3.5957 19.2123 3.5957 17.0022V8.99888C3.5957 7.89385 4.49151 6.99805 5.59654 6.99805H19.6024C20.7074 6.99805 21.6032 7.89385 21.6032 8.99888V17.0022C21.6032 19.2123 19.8116 21.0039 17.6015 21.0039Z" stroke="#F4904D" stroke-width="1.5" stroke-linecap="round" stroke-linejoin="round"/>
<path d="M8.59766 6.998V4.99717C8.59766 3.89214 9.49346 2.99634 10.5985 2.99634H14.6002C15.7052 2.99634 16.601 3.89214 16.601 4.99717V6.998" stroke="#F4904D" stroke-width="1.5" stroke-linecap="round" stroke-linejoin="round"/>
<rect x="10.5977" y="10.9998" width="4.00167" height="3.00125" rx="0.5" stroke="#F4904D" stroke-width="1.5" stroke-linecap="round" stroke-linejoin="round"/>
<path d="M14.5996 12.5002H18.1011C20.0349 12.5002 21.6025 10.9326 21.6025 8.99878V8.99878" stroke="#F4904D" stroke-width="1.5" stroke-linecap="round" stroke-linejoin="round"/>
<path d="M10.5986 12.5002H7.09716C5.16336 12.5002 3.5957 10.9326 3.5957 8.99878V8.99878" stroke="#F4904D" stroke-width="1.5" stroke-linecap="round" stroke-linejoin="round"/>
</svg>
