<svg width="25" height="24" viewBox="0 0 25 24" fill="none" xmlns="http://www.w3.org/2000/svg">
<path d="M11.4302 13.0993C11.1182 12.8269 10.6444 12.859 10.372 13.171C10.0995 13.4831 10.1317 13.9569 10.4437 14.2293L11.4302 13.0993ZM17.596 13.6643L18.0893 14.2293C18.102 14.2181 18.1144 14.2066 18.1264 14.1946L17.596 13.6643ZM12.0762 4.8053C11.7802 5.09508 11.7752 5.56993 12.065 5.8659C12.3548 6.16188 12.8296 6.16691 13.1256 5.87714L12.0762 4.8053ZM13.7716 10.9013C14.0837 11.1737 14.5574 11.1416 14.8299 10.8296C15.1023 10.5175 15.0702 10.0437 14.7581 9.77132L13.7716 10.9013ZM7.60578 10.3363L7.11253 9.77132C7.09978 9.78245 7.08741 9.79401 7.07544 9.80598L7.60578 10.3363ZM13.1256 19.1953C13.4216 18.9056 13.4266 18.4307 13.1368 18.1347C12.8471 17.8388 12.3722 17.8337 12.0762 18.1235L13.1256 19.1953ZM10.4437 14.2293C12.6336 16.1412 15.8993 16.1412 18.0893 14.2293L17.1028 13.0993C15.478 14.5178 13.055 14.5178 11.4302 13.0993L10.4437 14.2293ZM18.1264 14.1946L19.7903 12.5307L18.7297 11.47L17.0657 13.134L18.1264 14.1946ZM19.7959 12.525C21.8893 10.3868 21.8712 6.96187 19.7553 4.84596L18.6946 5.90662C20.2291 7.44113 20.2423 9.92497 18.7241 11.4756L19.7959 12.525ZM19.7553 4.84596C17.6394 2.73005 14.2144 2.71192 12.0762 4.8053L13.1256 5.87714C14.6763 4.35897 17.1601 4.37212 18.6946 5.90662L19.7553 4.84596ZM14.7581 9.77132C12.5682 7.8594 9.30248 7.8594 7.11253 9.77132L8.09903 10.9013C9.72385 9.48275 12.1468 9.48275 13.7716 10.9013L14.7581 9.77132ZM7.07544 9.80598L5.41147 11.47L6.47214 12.5306L8.13612 10.8666L7.07544 9.80598ZM5.40589 11.4756C3.3125 13.6138 3.33064 17.0388 5.44655 19.1547L6.50721 18.094C4.9727 16.5595 4.95955 14.0757 6.47772 12.525L5.40589 11.4756ZM5.44655 19.1547C7.56246 21.2706 10.9874 21.2887 13.1256 19.1953L12.0762 18.1235C10.5256 19.6417 8.04172 19.6285 6.50721 18.094L5.44655 19.1547Z" fill="#F4904D"/>
</svg>
