<svg width="25" height="24" viewBox="0 0 25 24" fill="none" xmlns="http://www.w3.org/2000/svg">
<path d="M13.0686 3.02278C14.4323 4.38649 14.4323 6.5975 13.0686 7.96121C11.7049 9.32492 9.49391 9.32492 8.1302 7.96121C6.76649 6.5975 6.76649 4.38649 8.1302 3.02278C9.49391 1.65907 11.7049 1.65907 13.0686 3.02278" stroke="#F4904D" stroke-width="1.5" stroke-linecap="round" stroke-linejoin="round"/>
<path d="M14.9626 12.796C13.6636 12.277 12.1396 11.991 10.5996 11.991C6.55161 11.991 2.59961 13.958 2.59961 16.983V17.983C2.59961 18.535 3.04761 18.983 3.59961 18.983H13.0126" stroke="#F4904D" stroke-width="1.5" stroke-linecap="round" stroke-linejoin="round"/>
<path d="M17.5996 22C14.8386 22 12.5996 19.762 12.5996 17C12.5996 14.296 14.8996 11.997 17.6036 12C20.3636 12.002 22.5996 14.24 22.5996 17C22.5996 19.761 20.3616 22 17.5996 22" stroke="#F4904D" stroke-width="1.5" stroke-linecap="round" stroke-linejoin="round"/>
<path d="M17.5996 15V19" stroke="#F4904D" stroke-width="1.5" stroke-linecap="round" stroke-linejoin="round"/>
<path d="M19.5996 17H15.5996" stroke="#F4904D" stroke-width="1.5" stroke-linecap="round" stroke-linejoin="round"/>
</svg>
