<svg width="25" height="25" viewBox="0 0 25 25" fill="none" xmlns="http://www.w3.org/2000/svg">
<path d="M10.5993 3.59625V12.2989" stroke="#F4904D" stroke-width="1.5" stroke-linecap="round" stroke-linejoin="round"/>
<path d="M13.6006 9.29764L10.5994 12.2989" stroke="#F4904D" stroke-width="1.5" stroke-linecap="round" stroke-linejoin="round"/>
<path d="M7.59814 9.29764L10.5994 12.2989" stroke="#F4904D" stroke-width="1.5" stroke-linecap="round" stroke-linejoin="round"/>
<path d="M13.6006 5.59708H14.601C16.2586 5.59708 17.6023 6.94078 17.6023 8.59833V14.6008C17.6023 16.2584 16.2586 17.6021 14.601 17.6021H6.59769C4.94014 17.6021 3.59644 16.2584 3.59644 14.6008V8.59833C3.59644 6.94078 4.94014 5.59708 6.59769 5.59708H7.5981" stroke="#F4904D" stroke-width="1.5" stroke-linecap="round" stroke-linejoin="round"/>
<path d="M17.6023 9.59875H18.6027C20.2603 9.59875 21.604 10.9425 21.604 12.6V18.6025C21.604 20.26 20.2603 21.6038 18.6027 21.6038H10.5994C8.94185 21.6038 7.59814 20.26 7.59814 18.6025V17.6021" stroke="#F4904D" stroke-width="1.5" stroke-linecap="round" stroke-linejoin="round"/>
</svg>
