<svg width="112" height="115" viewBox="0 0 112 115" fill="none" xmlns="http://www.w3.org/2000/svg">
<path fill-rule="evenodd" clip-rule="evenodd" d="M105.875 18.2717C107.464 19.2847 109.054 19.9765 110.522 20.3224L111.378 17.5799C110.35 17.3822 109.177 16.814 107.929 16.048C109.421 14.0467 110.497 11.7737 111.206 9.35234H108.125C107.611 11.3783 106.755 13.0831 105.704 14.4915C104.065 13.2314 102.524 11.6501 101.35 10.0689C103.405 8.58642 105.483 7.00515 105.483 4.4603C105.483 2.01428 103.869 0.358887 101.277 0.358887C98.3663 0.358887 96.4586 2.50842 96.4586 5.1521C96.4586 6.4863 96.8988 7.91932 97.6815 9.40176C95.7493 10.6865 94.0373 12.2678 94.0373 14.9115C94.0373 17.9258 96.3363 20.3224 100.127 20.3224C102.451 20.3224 104.358 19.5318 105.875 18.2717ZM103.6 16.5422C102.646 17.2587 101.595 17.7034 100.543 17.7034C98.6598 17.7034 97.2413 16.4928 97.2413 14.6891C97.2413 13.5032 97.9994 12.5643 99.0756 11.6748C100.298 13.429 101.913 15.1091 103.6 16.5422ZM102.866 4.4603C102.866 5.96744 101.595 6.93103 100.029 7.94403C99.5647 6.95574 99.2712 6.01686 99.2957 5.10269C99.2957 3.64496 100.127 2.63196 101.326 2.63196C102.426 2.63196 102.866 3.42259 102.866 4.4603ZM26.2774 0.481445H29.8577V17.1826H38.22V20.1284H26.2524V0.481445H26.2774ZM42.5764 12.8247L36.4925 0.481445H40.3231L42.5263 5.49666C42.8966 6.43577 43.2771 7.33463 43.668 8.25794C43.8852 8.77079 44.1055 9.29118 44.329 9.83019H44.4542C44.6835 9.29842 44.9128 8.7878 45.1389 8.28449C45.5545 7.35916 45.959 6.45855 46.332 5.49666L48.5352 0.481445H52.2657L46.1817 12.8247V20.1284H42.6015V12.8247H42.5764ZM58.5249 0.481445H54.5941H54.569V20.1284H57.8489V11.1449C57.8489 9.67239 57.6744 7.72195 57.5275 6.07883L57.5275 6.07863C57.4898 5.65711 57.4539 5.25582 57.4232 4.88802H57.5484L59.1508 9.36762L62.706 18.3025H64.3334L67.8135 9.36762L69.4409 4.88802H69.5661C69.3658 6.6896 69.0904 9.31893 69.0904 11.1449V20.1284H72.4704V0.481445H68.5146L64.9593 10.1467L63.6324 13.8716H63.5072L62.1802 10.1467L58.5249 0.481445ZM77.5028 0.481445H89.6457V3.42727H81.0831V8.44249H88.3438V11.3883H81.0831V17.1826H89.9462V20.1284H77.5028V0.481445ZM35.1519 30.6538H27.0654V25.8342H48.1497V30.6538H40.1129V58.0562H35.1519V30.6538ZM57.7493 25.8089H52.7883V58.0309H57.7493V25.8089ZM76.1794 25.2375C79.6025 25.2375 82.3806 27.1505 84.1418 29.3367L81.4132 32.8893C79.9497 31.2745 78.387 30.2311 76.229 30.2311C71.6401 30.2311 68.3658 34.6532 68.3658 41.9075C68.3658 49.2364 71.392 53.6833 76.0554 53.6833C78.5359 53.6833 80.3714 52.4909 81.9589 50.4785L84.6875 53.9815C82.4302 56.9875 79.5033 58.652 75.9561 58.652C68.8619 58.652 63.256 52.7393 63.256 42.0566C63.256 31.4733 68.9859 25.2375 76.1794 25.2375ZM94.2622 25.8089H89.3012V58.0309H94.2622V48.6153L98.2807 42.8516L105.797 58.0309H111.278L101.232 38.3797L109.84 25.8089H104.358L94.3863 40.4417H94.2622V25.8089ZM0.440308 104.743C0.440308 102.118 1.72976 99.8936 3.1928 98.4688L6.11887 101.093C5.15178 102.168 4.53185 103.168 4.53185 104.668C4.53185 107.617 7.08596 109.942 11.3015 109.942C15.6162 109.942 18.1455 107.892 18.1455 104.793C18.1455 103.043 17.4016 101.793 16.2857 100.768L19.1622 98.1439C21.1956 99.8936 22.2619 102.243 22.2619 104.868C22.2619 110.367 18.5423 114.841 11.4999 114.841C4.50705 114.841 0.440308 110.192 0.440308 104.743ZM0.440308 82.3223C0.440308 88.0214 4.38307 91.9459 11.2519 91.9459C18.1207 91.9459 22.2371 88.0214 22.2619 82.3223C22.2619 76.5981 18.1207 72.6987 11.2519 72.6987C4.40786 72.6987 0.440308 76.5981 0.440308 82.3223ZM4.53185 82.3223C4.53185 79.4227 7.06116 77.598 11.2519 77.598C15.4674 77.598 18.1455 79.4227 18.1455 82.3223C18.1455 85.1968 15.4674 87.0466 11.2519 87.0466C7.03637 87.0466 4.53185 85.1718 4.53185 82.3223ZM0.812241 65.1491V60.3498H8.92093V53.0259H0.812241V48.2516H21.8403V53.0259H13.0621V60.3498H21.8403V65.1741H0.812241V65.1491ZM0.812241 25.8551V39.1532V39.1782H21.8403V25.5552H17.8479V34.3539H12.9877V27.1299H9.02012V34.3539H4.80459V25.8551H0.812241ZM0.812241 17.0567V12.1824L11.2519 6.65821L15.889 4.53353V4.40855C15.41 4.45682 14.898 4.51316 14.3644 4.57186L14.3644 4.57187C12.4113 4.78675 10.1689 5.03345 8.20181 5.03345H0.812241V0.484131H21.8403V5.3834L11.3511 10.9076L6.76357 12.9823V13.1073C7.35241 13.0504 7.97131 12.9824 8.60748 12.9125L8.60751 12.9125C10.4897 12.7057 12.523 12.4823 14.3763 12.4823H21.8155V17.0567H0.812241ZM69.4495 74.0194L73.4564 81.1574V81.1818H77.1398L72.7098 73.5549C74.9746 72.7971 76.4429 71.1104 76.4429 68.3237C76.4429 64.2413 73.4564 62.8969 69.5988 62.8969H63.3519V69.2573C63.0521 68.6654 62.611 67.9931 62.0329 67.4929C60.0664 65.7999 57.9579 66.2933 56.4927 66.6362L56.3833 66.6618C56.3585 66.6618 56.3087 66.6618 56.2838 66.6373C56.2589 66.6129 56.234 66.5884 56.2091 66.5884C56.0598 66.5396 56.0598 66.3684 56.1594 66.3195C56.4331 66.1729 56.7069 66.0018 56.9309 65.8306C57.5033 65.4151 57.9513 65.0484 58.2499 64.5106C58.6481 63.7773 58.6481 63.2639 58.4988 62.5794C58.3744 62.0172 57.6277 60.7949 57.2046 60.8194C56.8655 60.839 56.9581 61.3455 57.0339 61.7597L57.0339 61.7599C57.0526 61.8624 57.0703 61.9592 57.0802 62.0416V62.115C57.3042 63.5084 56.3087 64.6573 54.243 65.4395C54.1683 65.464 54.0688 65.464 53.9692 65.4395C53.9443 65.4273 53.9132 65.4151 53.8821 65.4029C53.851 65.3906 53.8199 65.3784 53.795 65.3662C53.6706 65.3173 53.7452 65.2195 53.795 65.1951C54.467 64.6573 54.915 64.0217 55.139 63.2883C55.4874 62.2617 55.139 61.455 54.7905 60.8194C54.3923 60.1105 53.0982 59.3038 52.8991 59.5482C52.7948 59.6945 53.0023 60.0507 53.2498 60.4755L53.2499 60.4755C53.4161 60.7609 53.6004 61.0772 53.7203 61.3816C53.7203 61.3816 53.8946 62.0416 53.6706 62.7261C53.3968 63.4839 52.7497 64.1195 51.6796 64.6084C51.6049 64.6328 51.5302 64.6573 51.4556 64.6328C51.3311 64.6084 51.2565 64.4373 51.356 64.3395C52.8106 62.5476 52.6045 61.1395 52.5763 60.9468L52.5755 60.9416C52.5257 60.6483 52.3266 60.4283 52.0529 60.3305C52.0529 60.3305 50.5845 59.8905 50.0867 59.8416L50.0371 59.8359C49.3607 59.759 47.8189 59.5836 47.6975 60.0127C47.6119 60.3489 48.8138 60.7574 49.4058 60.9586C49.5025 60.9915 49.5829 61.0188 49.6387 61.0394C49.9125 61.1372 50.7836 61.4794 50.7836 61.4794C50.9329 61.5283 51.0076 61.675 50.9578 61.8216C50.8085 62.3839 50.3605 63.2883 49.1908 64.2662L49.1659 64.2906C49.0663 64.3884 48.9419 64.4128 48.8175 64.4373C48.7926 64.4373 48.7428 64.4373 48.7179 64.4617C47.9215 63.875 46.9011 63.8017 46.254 64.2906C45.6069 64.7795 45.4327 65.7573 45.7811 66.6862C45.7658 66.7013 45.7599 66.7164 45.7518 66.7373L45.745 66.7542C45.7414 66.7631 45.737 66.7729 45.7314 66.784C45.6816 66.9062 45.6069 67.004 45.5074 67.0773L45.4825 67.1018C44.1883 67.9329 43.2177 68.1285 42.6204 68.1285C42.4711 68.1285 42.3466 68.0063 42.3217 67.8596C42.3217 67.8596 42.2222 66.9551 42.1973 66.6618C42.1887 66.5902 42.1801 66.4808 42.1698 66.3487C42.12 65.7142 42.0291 64.5553 41.6995 64.535C41.264 64.5113 41.0167 66.0354 40.9118 66.6818L40.9031 66.7351C40.8285 67.224 40.8782 68.7152 40.8782 68.7152C40.9031 69.0085 41.0773 69.253 41.3511 69.3752L41.357 69.3777C41.5535 69.4606 42.8917 70.0255 45.0096 69.1063C45.1341 69.0574 45.2585 69.1552 45.2585 69.2774C45.2585 69.3507 45.2336 69.4241 45.1838 69.473C44.4123 70.353 43.6159 70.793 42.7946 70.8663C42.0728 70.9152 41.4755 70.573 41.4755 70.573C41.2287 70.3865 40.9819 70.1431 40.7544 69.9188C40.3855 69.555 40.0675 69.2414 39.8827 69.3019C39.5841 69.4241 40.032 70.8663 40.6294 71.4286C41.152 71.9175 41.8737 72.4553 42.9688 72.4064C43.7403 72.3575 44.487 72.113 45.1838 71.6241L45.1946 71.6187C45.2495 71.591 45.358 71.5361 45.358 71.673C45.358 71.6975 45.3643 71.728 45.3705 71.7586L45.3705 71.7587C45.3767 71.7892 45.3829 71.8197 45.3829 71.8442C45.4078 71.9419 45.3829 72.0397 45.3332 72.113C44.039 73.8731 42.6204 74.5087 41.3262 73.9464C41.3138 73.9464 41.3013 73.9403 41.2889 73.9342C41.2764 73.9281 41.264 73.922 41.2515 73.922C41.1788 73.8907 41.096 73.8505 41.0086 73.8079C40.6733 73.6448 40.2695 73.4484 40.0972 73.5976C39.4388 72.4549 38.1877 71.7398 36.4482 71.4524V71.3301C38.6383 70.7679 39.6339 69.1056 39.6339 67.37C39.6339 64.0211 36.8215 62.8721 33.0137 62.8721H27.0655V81.1326H33.4866C37.5931 81.1326 40.6294 79.4459 40.6294 75.7792C40.6294 75.362 40.5852 74.9741 40.4986 74.6154C40.797 74.9457 41.1707 75.2575 41.4258 75.3887C42.048 75.7065 42.5706 75.8532 43.3919 75.6576C43.9892 75.5109 44.4621 75.1687 45.0345 74.7531C45.2585 74.582 45.5074 74.362 45.7314 74.142C45.8309 74.0442 45.9802 74.0931 46.0051 74.2153C46.0051 74.2276 46.0113 74.2459 46.0176 74.2642C46.0238 74.2826 46.03 74.3009 46.03 74.3131C46.0474 74.3472 46.0405 74.3694 46.0348 74.388C46.0323 74.3961 46.03 74.4035 46.03 74.4109C45.9952 74.4768 45.9593 74.5442 45.9226 74.613C45.2247 75.9224 44.248 77.7548 45.3829 79.9844C46.0051 81.2066 47.2993 82.16 47.7971 82.4289C48.9419 83.04 50.4103 83.5534 51.1071 83.0156C51.4564 82.7583 51.0949 82.6213 50.4268 82.3683L50.4267 82.3682L50.4262 82.368L50.426 82.368L50.4255 82.3678L50.4251 82.3677C50.1415 82.2602 49.8027 82.1318 49.4396 81.9644C48.2948 81.4267 47.4984 80.7666 46.8762 79.4955C46.4011 78.54 46.6047 77.746 46.8139 76.9301C46.8348 76.8484 46.8558 76.7666 46.8762 76.6843C46.9011 76.5376 47.1002 76.5132 47.1997 76.6598C47.4237 77.0265 47.6477 77.3688 47.9215 77.711C50.6591 81.2066 54.4421 82.7222 57.578 81.5978H57.6029C58.1504 81.4022 58.673 81.1578 59.2206 80.7422L59.1957 80.7666C59.7183 80.3755 60.1165 79.9355 60.4401 79.471C60.4401 79.471 60.4401 79.4466 60.465 79.4466C62.3813 76.7821 61.8836 72.7731 59.1708 69.2774C58.897 68.9352 58.6233 68.6174 58.3246 68.3241C58.225 68.2018 58.2748 68.0307 58.4241 68.0307C58.466 68.0318 58.5077 68.0327 58.5493 68.0336L58.6569 68.0358C59.5176 68.0526 60.3417 68.0687 61.1867 68.7641C62.2569 69.693 62.7049 70.6219 62.9288 71.8442C63.005 72.2479 63.0462 72.6127 63.0802 72.9142C63.141 73.4522 63.1789 73.7886 63.3519 73.784V81.1574H66.6371V74.0194H69.4495ZM69.2504 71.4282H66.6371V65.488H69.2504C71.8138 65.488 73.1826 66.1969 73.1826 68.2992C73.1826 70.3771 71.8138 71.4282 69.2504 71.4282ZM80.8978 62.8969H84.2825L90.0565 73.1638L91.9978 77.0506H92.1222C92.0987 76.7968 92.0739 76.5355 92.0485 76.2682C91.8854 74.5532 91.6991 72.5936 91.6991 70.8171V62.8969H94.835V81.1573H91.4502L85.6763 70.8904L83.735 67.0036H83.6106C83.641 67.3407 83.6737 67.686 83.7069 68.0372L83.7069 68.0375L83.707 68.0376C83.8641 69.698 84.0337 71.4892 84.0337 73.1638V81.1573H80.8978V62.8969ZM111.261 62.8969H100.111V81.1573H111.56V78.4195H103.396V73.0416H110.066V70.3037H103.396V65.6347H111.261V62.8969ZM57.9264 77.1976C57.7024 77.5154 57.4286 77.8332 57.0802 78.0777L57.0553 78.1021C56.7069 78.3466 56.3336 78.5177 55.9851 78.6643C53.9443 79.4221 51.4307 78.4199 49.6139 76.0976C48.7677 75.022 48.245 73.702 48.021 72.3819C47.9713 72.0642 48.2699 71.8442 48.5686 71.9664C49.589 72.3819 50.8085 72.3331 51.9533 71.5019C53.0733 70.6463 53.4466 69.4974 53.2973 68.4218C53.2475 68.104 53.571 67.884 53.8697 68.0063C55.0892 68.5685 56.2589 69.3996 57.1051 70.4752C58.897 72.7975 59.2206 75.462 57.9264 77.1976ZM36.3984 67.7367C36.3984 69.4479 35.3283 70.4257 32.715 70.4257H30.3756V65.3655H32.7897C35.2038 65.3655 36.3984 66.05 36.3984 67.7367ZM37.3939 75.5347C37.3939 77.6125 35.9007 78.6148 33.163 78.6148H30.3756V72.748H33.163C35.9256 72.748 37.3939 73.628 37.3939 75.5347ZM27.0654 86.1517H31.0839C35.6976 86.1517 38.4509 88.6721 38.4509 93.688C38.4509 98.7287 35.6976 101.349 31.2327 101.349H27.0654V86.1517ZM30.9102 99.153C33.9612 99.153 35.7224 97.4062 35.7224 93.663C35.7224 89.9448 33.9612 88.3228 30.9102 88.3228H29.7444V99.153H30.9102ZM44.801 86.1517H42.1221V101.349H44.801V86.1517ZM49.7124 97.5555C50.8038 98.5786 52.2425 99.2774 53.6564 99.2774C55.3431 99.2774 56.2857 98.5038 56.2857 97.3309C56.2857 96.0836 55.319 95.6842 53.9308 95.1106L53.9293 95.11L51.8704 94.2116C50.3573 93.5877 48.8194 92.3899 48.8194 90.169C48.8194 87.7484 50.9527 85.9018 53.8796 85.9018C55.6656 85.9018 57.3772 86.6504 58.543 87.8233L57.1539 89.5451C56.2113 88.7216 55.1695 88.2475 53.8796 88.2475C52.441 88.2475 51.5232 88.9213 51.5232 90.0442C51.5232 91.1765 52.6098 91.6343 53.8009 92.1362L53.9293 92.1903L55.9633 93.0387C57.774 93.8123 59.0143 94.9353 59.0143 97.1562C59.0143 99.6267 56.9803 101.673 53.582 101.673C51.548 101.673 49.5884 100.849 48.1497 99.452L49.7124 97.5555ZM71.4416 86.1517H62.3878V101.324H71.6896V99.0532H65.0419V94.5614H70.4742V92.2905H65.0419V88.4226H71.4416V86.1517ZM82.3558 97.2315H77.2956L76.1298 101.349H73.3764L78.3126 86.1517H81.4628L86.3742 101.349H83.5216L82.3558 97.2315ZM81.7605 95.1104L81.2396 93.2388C80.8791 92.0171 80.533 90.7077 80.1905 89.4113C80.0852 89.013 79.9802 88.6159 79.8753 88.2229H79.7761L79.7058 88.5059C79.3073 90.1107 78.9052 91.7304 78.4366 93.2388L77.9157 95.1104H81.7605ZM93.27 99.2774C91.8561 99.2774 90.4174 98.5786 89.326 97.5555L87.7633 99.452C89.202 100.849 91.1616 101.673 93.1956 101.673C96.5939 101.673 98.6279 99.6267 98.6279 97.1562C98.6279 94.9353 97.3877 93.8123 95.5769 93.0387L93.5429 92.1903L93.4146 92.1362C92.2234 91.6343 91.1368 91.1765 91.1368 90.0442C91.1368 88.9213 92.0546 88.2475 93.4933 88.2475C94.7831 88.2475 95.825 88.7216 96.7675 89.5451L98.1566 87.8233C96.9908 86.6504 95.2792 85.9018 93.4933 85.9018C90.5663 85.9018 88.433 87.7484 88.433 90.169C88.433 92.3899 89.971 93.5877 91.4841 94.2116L93.5429 95.11L93.5444 95.1106C94.9327 95.6842 95.8994 96.0836 95.8994 97.3309C95.8994 98.5038 94.9568 99.2774 93.27 99.2774ZM102.001 86.1517H111.055V88.4226H104.68V92.2905H110.113V94.5614H104.68V99.0532H111.303V101.324H102.001V86.1517ZM27.0902 114.525H111.278V105.169H27.0902V114.525ZM110.931 114.146H27.4623V105.547H110.931V114.146ZM39.468 107.741H40.2121V112.028H39.468V107.741ZM45.57 107.741H44.801V112.003H45.5204V110.137C45.5204 109.658 45.4708 109.154 45.4212 108.7H45.446L45.8925 109.608L47.2071 112.028H47.9761V107.741H47.2568V109.608C47.2568 110.087 47.3064 110.641 47.356 111.07H47.3312L46.8847 110.162L45.57 107.741ZM52.565 107.741H53.3092V112.028H52.565V107.741ZM57.5508 108.372H58.7662V112.028H59.5104V108.372H60.7259V107.741H57.5508V108.372ZM64.9427 107.741H65.6869V112.028H64.9427V107.741ZM70.8215 110.868H72.2354L72.5579 112.028H73.3517L71.9874 107.741H71.1192L69.7301 112.028H70.4991L70.8215 110.868ZM71.9378 109.759L72.0866 110.263V110.288H71.02L71.1688 109.759C71.2928 109.305 71.4169 108.826 71.5409 108.347H71.5657C71.6897 108.826 71.8137 109.305 71.9378 109.759ZM78.0149 108.372H76.7995V107.741H79.9745V108.372H78.7591V112.028H78.0149V108.372ZM84.9356 107.741H84.1914V112.028H84.9356V107.741ZM88.9788 107.741H89.7726L90.3679 109.885C90.3873 109.96 90.4062 110.034 90.4247 110.107C90.4353 110.149 90.4458 110.19 90.4562 110.231C90.5438 110.578 90.6278 110.911 90.74 111.272H90.7648C90.8769 110.911 90.9608 110.579 91.0484 110.232L91.0485 110.232C91.0772 110.118 91.1063 110.003 91.1368 109.885L91.7322 107.741H92.5011L91.2113 112.028H90.2935L88.9788 107.741ZM99.0496 107.741H96.5195V111.978H99.124V111.347H97.2636V110.087H98.7767V109.456H97.2636V108.372H99.0496V107.741Z" fill="#005163"/>
</svg>
