<svg width="21" height="21" viewBox="0 0 21 21" fill="none" xmlns="http://www.w3.org/2000/svg">
<path fill-rule="evenodd" clip-rule="evenodd" d="M5 5.51676C3.83333 6.76676 3 8.51676 3 10.7668C3 12.4334 3.58333 14.0168 4.5 15.2668C5.58333 16.6834 7.16667 17.5168 8 17.8501V17.2668C8 17.2668 8 15.9334 8.75 14.7668C7.08333 14.6834 5.75 13.1001 5.75 11.2668C5.75 10.6001 6 10.0168 6.41667 9.51676L6.5 7.93343C6.5 7.51676 6.91667 7.26676 7.33333 7.3501L9.08333 8.01676C9.58333 7.93343 10.0833 7.8501 10.6667 7.8501C11.25 7.8501 11.75 7.93343 12.25 8.01676L13.75 7.26676C14.1667 7.1001 14.5833 7.43343 14.5833 7.8501L14.6667 9.43343C15.0833 9.93343 15.3333 10.6001 15.3333 11.1834C15.3333 13.0168 14 14.5168 12.3333 14.6834C13.0833 15.8501 13.0833 17.1834 13.0833 17.1834V17.7668C13.9167 17.4334 15.5 16.6001 16.5833 15.1834C17.5 14.0168 18.0833 12.3501 18.0833 10.6834C18.0833 8.43343 17.25 6.68343 16.0833 5.43343C14.5 3.8501 12.3333 3.1001 10.5 3.1001C8.66667 3.1001 6.5 3.8501 5 5.51676V5.51676Z" stroke="url(#paint0_linear_704_6972)" stroke-width="1.5" stroke-linecap="round" stroke-linejoin="round"/>
<defs>
<linearGradient id="paint0_linear_704_6972" x1="6.39375" y1="3.1001" x2="15.706" y2="4.28304" gradientUnits="userSpaceOnUse">
<stop stop-color="#F38B97"/>
<stop offset="1" stop-color="#F4904D"/>
</linearGradient>
</defs>
</svg>
