<svg width="25" height="25" viewBox="0 0 25 25" fill="none" xmlns="http://www.w3.org/2000/svg">
<path d="M12.3 20.8034C15.3047 20.8037 18.0691 19.1613 19.5057 16.5223" stroke="#F4904D" stroke-width="1.5" stroke-linecap="round" stroke-linejoin="round"/>
<path d="M20.5035 12.6C20.5035 8.0694 16.8307 4.39661 12.3 4.39661" stroke="#F4904D" stroke-width="1.5" stroke-linecap="round" stroke-linejoin="round"/>
<path d="M12.3002 4.39661C9.29549 4.39636 6.53109 6.03879 5.09448 8.67776" stroke="#F4904D" stroke-width="1.5" stroke-linecap="round" stroke-linejoin="round"/>
<path d="M4.09668 12.6C4.09668 17.1306 7.76947 20.8034 12.3001 20.8034" stroke="#F4904D" stroke-width="1.5" stroke-linecap="round" stroke-linejoin="round"/>
<path d="M5.09448 8.67775C6.88769 5.38235 10.688 3.72338 14.3237 4.64884C17.9595 5.57429 20.5041 8.84831 20.5036 12.6" stroke="#F4904D" stroke-width="1.5" stroke-linecap="round" stroke-linejoin="round"/>
<path d="M4.09668 12.6C4.09611 16.3517 6.64075 19.6257 10.2765 20.5512C13.9123 21.4766 17.7126 19.8177 19.5058 16.5223" stroke="#F4904D" stroke-width="1.5" stroke-linecap="round" stroke-linejoin="round"/>
<path d="M8.24671 8.67776H4.62183V5.05185" stroke="#F4904D" stroke-width="1.5" stroke-linecap="round" stroke-linejoin="round"/>
<path d="M16.3535 16.5223H19.9784V20.1482" stroke="#F4904D" stroke-width="1.5" stroke-linecap="round" stroke-linejoin="round"/>
</svg>
