<svg width="25" height="24" viewBox="0 0 25 24" fill="none" xmlns="http://www.w3.org/2000/svg">
<path d="M7.3473 8.99872C7.3473 8.58451 7.01152 8.24872 6.5973 8.24872C6.18309 8.24872 5.8473 8.58451 5.8473 8.99872H7.3473ZM19.3523 8.99872C19.3523 8.58451 19.0165 8.24872 18.6023 8.24872C18.1881 8.24872 17.8523 8.58451 17.8523 8.99872H19.3523ZM15.3506 9.99914C15.3506 9.58492 15.0149 9.24914 14.6006 9.24914C14.1864 9.24914 13.8506 9.58492 13.8506 9.99914H15.3506ZM13.8506 17.0021C13.8506 17.4163 14.1864 17.7521 14.6006 17.7521C15.0149 17.7521 15.3506 17.4163 15.3506 17.0021H13.8506ZM11.349 9.99914C11.349 9.58492 11.0132 9.24914 10.599 9.24914C10.1848 9.24914 9.84897 9.58492 9.84897 9.99914H11.349ZM9.84897 17.0021C9.84897 17.4163 10.1848 17.7521 10.599 17.7521C11.0132 17.7521 11.349 17.4163 11.349 17.0021H9.84897ZM5.09668 5.24747C4.68247 5.24747 4.34668 5.58326 4.34668 5.99747C4.34668 6.41168 4.68247 6.74747 5.09668 6.74747V5.24747ZM20.1029 6.74747C20.5171 6.74747 20.8529 6.41168 20.8529 5.99747C20.8529 5.58326 20.5171 5.24747 20.1029 5.24747V6.74747ZM7.88663 5.7603C7.75564 6.15325 7.96801 6.57799 8.36097 6.70898C8.75392 6.83997 9.17866 6.6276 9.30965 6.23464L7.88663 5.7603ZM9.14236 4.36479L9.85388 4.60196L9.85393 4.60179L9.14236 4.36479ZM11.0412 2.99622L11.041 3.74622H11.0412V2.99622ZM14.1585 2.99622V3.74622L14.1594 3.74622L14.1585 2.99622ZM16.0592 4.36479L16.771 4.1284L16.7708 4.12779L16.0592 4.36479ZM15.8897 6.23385C16.0202 6.62695 16.4448 6.83979 16.8379 6.70924C17.231 6.57869 17.4438 6.15418 17.3132 5.76108L15.8897 6.23385ZM5.8473 8.99872V19.0029H7.3473V8.99872H5.8473ZM5.8473 19.0029C5.8473 20.5221 7.07889 21.7537 8.59814 21.7537V20.2537C7.90732 20.2537 7.3473 19.6937 7.3473 19.0029H5.8473ZM8.59814 21.7537H16.6015V20.2537H8.59814V21.7537ZM16.6015 21.7537C18.1207 21.7537 19.3523 20.5221 19.3523 19.0029H17.8523C17.8523 19.6937 17.2923 20.2537 16.6015 20.2537V21.7537ZM19.3523 19.0029V8.99872H17.8523V19.0029H19.3523ZM13.8506 9.99914V17.0021H15.3506V9.99914H13.8506ZM9.84897 9.99914V17.0021H11.349V9.99914H9.84897ZM5.09668 6.74747H20.1029V5.24747H5.09668V6.74747ZM9.30965 6.23464L9.85388 4.60196L8.43085 4.12762L7.88663 5.7603L9.30965 6.23464ZM9.85393 4.60179C10.0241 4.09077 10.5024 3.74609 11.041 3.74622L11.0413 2.24622C9.85681 2.24593 8.80511 3.00396 8.4308 4.12779L9.85393 4.60179ZM11.0412 3.74622H14.1585V2.24622H11.0412V3.74622ZM14.1594 3.74622C14.6985 3.74555 15.1773 4.09033 15.3477 4.60179L16.7708 4.12779C16.3962 3.00299 15.3431 2.24475 14.1575 2.24622L14.1594 3.74622ZM15.3475 4.60117L15.8897 6.23385L17.3132 5.76108L16.771 4.1284L15.3475 4.60117Z" fill="#F4904D"/>
</svg>
