<svg width="21" height="21" viewBox="0 0 21 21" fill="none" xmlns="http://www.w3.org/2000/svg">
<path d="M5.08203 13.4665L5.38664 14.1519C5.60789 14.0535 5.76806 13.8544 5.81672 13.6173C5.86539 13.3801 5.79657 13.134 5.63192 12.9565L5.08203 13.4665ZM4.5 4.64185L5.16058 4.28669C5.03797 4.05863 4.80639 3.90995 4.54798 3.89338C4.28958 3.87682 4.04091 3.99471 3.89018 4.20524L4.5 4.64185ZM3 14.3918L2.6954 13.7065C2.48824 13.7986 2.33384 13.9794 2.27538 14.1984C2.21691 14.4174 2.26064 14.6511 2.39435 14.8342L3 14.3918ZM16.5 8.39185L15.876 7.97582C15.7938 8.09902 15.75 8.24378 15.75 8.39185H16.5ZM18 6.14185L18.624 6.55787C18.7775 6.32773 18.7918 6.03182 18.6613 5.78795C18.5307 5.54408 18.2766 5.39185 18 5.39185V6.14185ZM15.75 6.14185L15.1238 6.55462C15.2626 6.76514 15.4979 6.89185 15.75 6.89185V6.14185ZM9 8.39185L8.82288 9.12063C9.04223 9.17394 9.27393 9.12562 9.45369 8.98906C9.63344 8.85251 9.74213 8.64226 9.74959 8.41664L9 8.39185ZM5.63192 12.9565C3.53447 10.695 3.41248 7.44919 5.10982 5.07845L3.89018 4.20524C1.78634 7.14378 1.94041 11.1822 4.53214 13.9765L5.63192 12.9565ZM4.77743 12.7811L2.6954 13.7065L3.3046 15.0772L5.38664 14.1519L4.77743 12.7811ZM8.25 16.6418C6.89458 16.6418 5.99753 16.2926 5.32603 15.8174C4.63162 15.3261 4.13297 14.6715 3.60565 13.9495L2.39435 14.8342C2.91453 15.5464 3.54088 16.3918 4.4596 17.0419C5.40122 17.7082 6.60542 18.1418 8.25 18.1418V16.6418ZM15.75 8.39185C15.75 10.8788 15.0401 12.9378 13.7814 14.3644C12.5329 15.7793 10.6843 16.6418 8.25 16.6418V18.1418C11.0657 18.1418 13.3421 17.1294 14.9061 15.3568C16.4599 13.5959 17.25 11.1549 17.25 8.39185H15.75ZM17.376 5.72582L15.876 7.97582L17.124 8.80787L18.624 6.55787L17.376 5.72582ZM15.75 6.89185H18V5.39185H15.75V6.89185ZM12.75 5.39185C13.4052 5.39185 13.876 5.51609 14.2319 5.70602C14.5862 5.89508 14.8728 6.17387 15.1238 6.55462L16.3762 5.72908C16.0163 5.18316 15.5551 4.71194 14.9381 4.38268C14.3228 4.05427 13.5989 3.89185 12.75 3.89185V5.39185ZM9.74959 8.41664C9.78 7.49732 10.1038 6.74569 10.6095 6.22891C11.1112 5.71623 11.833 5.39185 12.75 5.39185V3.89185C11.4578 3.89185 10.3405 4.35913 9.5374 5.17978C8.73833 5.99634 8.29167 7.11971 8.25041 8.36705L9.74959 8.41664ZM3.83942 4.997C4.83499 6.84875 6.71019 8.60717 8.82288 9.12063L9.17712 7.66306C7.57981 7.27486 6.01001 5.86661 5.16058 4.28669L3.83942 4.997Z" fill="url(#paint0_linear_704_7008)"/>
<defs>
<linearGradient id="paint0_linear_704_7008" x1="6.375" y1="4.64184" x2="15.5884" y2="5.98835" gradientUnits="userSpaceOnUse">
<stop stop-color="#F38B97"/>
<stop offset="1" stop-color="#F4904D"/>
</linearGradient>
</defs>
</svg>
