<svg width="25" height="24" viewBox="0 0 25 24" fill="none" xmlns="http://www.w3.org/2000/svg">
<path d="M21.3929 9.52343C22.183 10.3135 22.183 11.5944 21.3929 12.3844C20.6029 13.1744 19.322 13.1744 18.532 12.3844C17.7419 11.5944 17.7419 10.3135 18.532 9.52343C19.322 8.7334 20.6029 8.7334 21.3929 9.52343" stroke="#F4904D" stroke-width="1.5" stroke-linecap="round" stroke-linejoin="round"/>
<path d="M14.802 5.91236C16.0185 7.12884 16.0185 9.10115 14.802 10.3176C13.5855 11.5341 11.6132 11.5341 10.3967 10.3176C9.18025 9.10116 9.18025 7.12885 10.3967 5.91236C11.6132 4.69588 13.5855 4.69588 14.802 5.91236" stroke="#F4904D" stroke-width="1.5" stroke-linecap="round" stroke-linejoin="round"/>
<path d="M6.66832 9.52343C7.45835 10.3135 7.45835 11.5944 6.66832 12.3844C5.87829 13.1744 4.5974 13.1744 3.80737 12.3844C3.01734 11.5944 3.01734 10.3135 3.80737 9.52343C4.5974 8.7334 5.87829 8.7334 6.66832 9.52343" stroke="#F4904D" stroke-width="1.5" stroke-linecap="round" stroke-linejoin="round"/>
<path d="M23.5998 19.0001V17.9041C23.5998 16.5231 22.4808 15.4041 21.0998 15.4041H20.2988" stroke="#F4904D" stroke-width="1.5" stroke-linecap="round" stroke-linejoin="round"/>
<path d="M1.59961 19.0001V17.9041C1.59961 16.5231 2.71861 15.4041 4.09961 15.4041H4.90061" stroke="#F4904D" stroke-width="1.5" stroke-linecap="round" stroke-linejoin="round"/>
<path d="M17.9388 18.9999V17.3989C17.9388 15.4659 16.3718 13.8989 14.4388 13.8989H10.7598C8.82677 13.8989 7.25977 15.4659 7.25977 17.3989V18.9999" stroke="#F4904D" stroke-width="1.5" stroke-linecap="round" stroke-linejoin="round"/>
</svg>
