<svg width="20" height="21" viewBox="0 0 20 21" fill="none" xmlns="http://www.w3.org/2000/svg">
<path d="M11.7684 8.80954C12.7442 9.78537 12.7442 11.3695 11.7684 12.347C10.7926 13.3229 9.2084 13.3229 8.2309 12.347C7.25507 11.3712 7.25507 9.78704 8.2309 8.80954C9.2084 7.83204 10.7917 7.83204 11.7684 8.80954" stroke="url(#paint0_linear_1306_29000)" stroke-width="1.5" stroke-linecap="round" stroke-linejoin="round"/>
<path fill-rule="evenodd" clip-rule="evenodd" d="M2.5 10.5763C2.5 10.0271 2.62667 9.48375 2.87167 8.98292V8.98292C4.13417 6.40209 6.92417 4.74292 10 4.74292C13.0758 4.74292 15.8658 6.40209 17.1283 8.98292V8.98292C17.3733 9.48375 17.5 10.0271 17.5 10.5763C17.5 11.1254 17.3733 11.6688 17.1283 12.1696V12.1696C15.8658 14.7504 13.0758 16.4096 10 16.4096C6.92417 16.4096 4.13417 14.7504 2.87167 12.1696V12.1696C2.62667 11.6688 2.5 11.1254 2.5 10.5763Z" stroke="url(#paint1_linear_1306_29000)" stroke-width="1.5" stroke-linecap="round" stroke-linejoin="round"/>
<defs>
<linearGradient id="paint0_linear_1306_29000" x1="8.06096" y1="8.07641" x2="12.2185" y2="8.40029" gradientUnits="userSpaceOnUse">
<stop stop-color="#FF7999"/>
<stop offset="1" stop-color="#FFBA52"/>
</linearGradient>
<linearGradient id="paint1_linear_1306_29000" x1="4.18539" y1="4.74292" x2="16.6059" y2="5.98723" gradientUnits="userSpaceOnUse">
<stop stop-color="#FF7999"/>
<stop offset="1" stop-color="#FFBA52"/>
</linearGradient>
</defs>
</svg>
